<svg width="89" height="78" viewBox="0 0 89 78" fill="none" xmlns="http://www.w3.org/2000/svg">
<g clip-path="url(#clip0_8791_11839)">
<path d="M56.2084 45.7682C53.9289 48.0058 51.4779 48.7223 48.8564 47.9192C46.5768 47.2878 44.2112 45.3663 41.761 42.1539L41.2477 41.6372L20.0469 63.4084H82.1119L60.825 41.3789C59.9131 42.2967 58.374 43.7593 56.2084 45.7675V45.7682Z" fill="#65B946"/>
<path d="M45.3511 41.7236C47.802 44.2477 50.5375 44.7924 53.5583 43.3587C54.8121 42.7851 56.2085 41.7236 57.7476 40.1752C58.5455 39.3721 59.2007 38.6259 59.714 37.9376C66.4961 31.5697 74.1614 24.2841 82.7106 16.0806H39.1791V25.9677C39.8788 26.6721 33.7872 26.3852 32.543 28.4726C35.8604 31.8123 43.9754 40.274 45.3511 41.7236Z" fill="#65B946"/>
<path d="M21.3459 28.4731H17.6133L17.9956 60.8275L38.9406 39.3147L28.4681 28.7304L21.3459 28.4731Z" fill="#65B946"/>
<path d="M84.4204 61.0855V18.9199L63.2188 39.1418L84.4204 61.0855Z" fill="#65B946"/>
</g>
<g clip-path="url(#clip1_8791_11839)">
<path d="M19.4357 18.1348H18.4692C17.9679 18.1348 17.5612 17.7952 17.5612 17.3754C17.5612 17.2201 17.6358 17.0701 17.7689 16.9618C18.3311 16.5045 18.8038 15.8888 19.1458 15.2252C19.2155 15.2679 19.2901 15.2992 19.3747 15.2992C19.917 15.2992 20.5564 14.2949 20.5564 13.6105C20.5564 12.9261 20.4805 12.3709 19.9369 12.3709C19.8723 12.3709 19.8051 12.3802 19.7354 12.3948C19.6969 10.5384 19.1371 8.22266 15.7526 8.22266C12.2212 8.22266 11.8095 10.5343 11.7697 12.3886C11.72 12.3802 11.6702 12.3709 11.6242 12.3709C11.0806 12.3709 11.006 12.9261 11.006 13.6105C11.006 14.2949 11.6429 15.2992 12.1864 15.2992C12.2536 15.2992 12.3158 15.2836 12.3742 15.2554C12.7151 15.9086 13.1815 16.5118 13.735 16.9649C13.8681 17.0733 13.9428 17.2212 13.9428 17.3774C13.9428 17.7973 13.536 18.1379 13.0347 18.1379H12.067C9.99971 18.1379 8.32422 19.5411 8.32422 21.2725V22.1413C8.32422 22.6872 8.85286 23.131 9.50589 23.131H21.9968C22.6486 23.131 23.1772 22.6872 23.1772 22.1413V21.2725C23.1785 19.539 21.503 18.1348 19.4357 18.1348Z" fill="#65B946"/>
<path d="M30.6387 9.53516H20.1641C20.4663 10.0956 20.6828 10.7852 20.7723 11.6384C20.9962 11.7541 21.1641 11.9405 21.301 12.1655H30.6387C31.1238 12.1655 31.5143 11.8374 31.5143 11.4322V10.2685C31.5143 9.86435 31.1238 9.53516 30.6387 9.53516Z" fill="#65B946"/>
<path d="M30.6393 14.3281H21.5156C21.2681 15.1115 20.6586 15.9314 19.814 16.1501C19.7891 16.1887 19.7605 16.222 19.7344 16.2605V16.9585H30.6381C31.122 16.9585 31.5138 16.6304 31.5138 16.2241V15.0615C31.515 14.6563 31.1245 14.3281 30.6393 14.3281Z" fill="#65B946"/>
<path d="M30.6419 19.1211H23.5195C23.9897 19.7441 24.2658 20.4785 24.2658 21.2692V21.7515H30.6419C31.127 21.7515 31.5176 21.4233 31.5176 21.0181V19.8545C31.5176 19.4492 31.127 19.1211 30.6419 19.1211Z" fill="#65B946"/>
<path d="M34.404 2.22217H5.4344C2.46281 2.22217 0.0546875 4.23897 0.0546875 6.72768V24.6206C0.0546875 27.1103 2.46281 29.1261 5.4344 29.1261H34.404C37.3756 29.1261 39.7825 27.1093 39.7825 24.6206V6.72768C39.7825 4.23897 37.3756 2.22217 34.404 2.22217ZM37.2438 24.6206C37.2438 25.9321 35.9701 26.9988 34.404 26.9988H5.4344C3.86838 26.9988 2.59466 25.9321 2.59466 24.6206V6.72768C2.59466 5.41613 3.86838 4.3494 5.4344 4.3494H34.404C35.9701 4.3494 37.2438 5.41613 37.2438 6.72768V24.6206Z" fill="#65B946"/>
</g>
<defs>
<clipPath id="clip0_8791_11839">
<rect width="75.4828" height="75.9794" fill="white" transform="translate(13.4648 1.75488)"/>
</clipPath>
<clipPath id="clip1_8791_11839">
<rect width="39.7278" height="33.272" fill="white" transform="translate(0.0546875 0.265137)"/>
</clipPath>
</defs>
</svg>
