<svg width="225" height="63" viewBox="0 0 225 63" fill="none" xmlns="http://www.w3.org/2000/svg">
<path d="M0 25.012L0 37.8998L189.147 37.8998C190.011 41.2127 191.588 44.1863 193.881 46.8186C196.842 50.1146 200.29 52.1169 204.222 52.8238C204.659 52.8819 205.095 52.9419 205.533 53V44.7881H211.796C212.865 44.6119 213.641 44.2875 214.126 43.8169C214.709 43.2282 215 42.5214 215 41.6983C215 40.9334 214.709 40.2566 214.126 39.6678C213.641 39.1973 212.865 38.8729 211.796 38.6967H205.533V24.3033H211.796C212.865 24.1271 213.641 23.8027 214.126 23.3322C214.709 22.7434 215 22.0366 215 21.2136C215 20.4486 214.709 19.7718 214.126 19.1831C213.641 18.7125 212.865 18.3881 211.796 18.2119H205.533V10C205.095 10.0581 204.659 10.1181 204.222 10.1762C200.29 10.8831 196.842 12.9135 193.881 16.2695C191.605 18.8475 190.028 21.761 189.147 25.012L0 25.012Z" fill="#65B946"/>
</svg>
