<svg width="94" height="94" viewBox="0 0 94 94" fill="none" xmlns="http://www.w3.org/2000/svg">
<path d="M30.1953 29.4973C30.1953 34.4764 32.0484 38.9875 35.0455 42.2535C38.0406 45.5176 42.1798 47.5386 46.752 47.5386C51.3242 47.5386 55.4614 45.5186 58.4585 42.2535C61.4546 38.9875 63.3087 34.4764 63.3087 29.4973C63.3087 24.5182 61.4546 20.0052 58.4585 16.7411C55.4614 13.4771 51.3212 11.4561 46.752 11.4561C42.1828 11.4561 38.0416 13.4761 35.0455 16.7411C32.0484 20.0052 30.1953 24.5172 30.1953 29.4973ZM41.1068 25.3283C41.9968 25.3283 42.8558 25.6903 43.5119 26.3383L48.1901 24.2122C48.1601 24.0092 48.1451 23.8052 48.1451 23.5982C48.1451 21.4392 49.7511 19.6892 51.7312 19.6892H51.7342C53.7153 19.6892 55.3223 21.4402 55.3223 23.5982C55.3223 25.7563 53.7163 27.5093 51.7342 27.5093C50.8932 27.5093 50.0791 27.1883 49.4351 26.6003L44.6699 28.7653C44.6849 28.9123 44.6949 29.0603 44.6959 29.2093L49.6481 31.6964C50.2501 31.2333 50.9702 30.9793 51.7122 30.9793C53.6853 30.9793 55.2853 32.7244 55.2853 34.8724C55.2853 37.0204 53.6853 38.7655 51.7122 38.7655C49.7391 38.7655 48.142 37.0214 48.142 34.8724C48.142 34.5744 48.1731 34.2764 48.2351 33.9854L43.8339 31.7774C43.1558 32.6404 42.1618 33.1484 41.1058 33.1484C39.1237 33.1484 37.5166 31.3963 37.5166 29.2373C37.5166 27.0783 39.1227 25.3283 41.1058 25.3283H41.1068Z" fill="#65B946"/>
<path d="M54.2171 78.087C56.1272 76.006 57.3103 73.1289 57.3103 69.9509C57.3103 66.7728 56.1272 63.9008 54.2132 61.8128C52.6041 60.0597 50.478 58.8687 48.1059 58.5377V50.9336C47.6579 50.9666 47.2059 50.9846 46.7508 50.9846C46.2958 50.9846 45.8428 50.9666 45.3948 50.9336V58.5377C43.0217 58.8687 40.8936 60.0607 39.2845 61.8167C37.3725 63.8998 36.1914 66.7748 36.1914 69.9499C36.1914 73.1249 37.3535 75.95 39.2335 78.028L39.2845 78.086C41.1946 80.167 43.8347 81.456 46.7508 81.456C49.667 81.456 52.2571 80.19 54.1642 78.141L54.2171 78.086V78.087ZM53.0281 75.666L52.9951 75.645C52.1581 75.1369 49.979 74.9689 49.0829 74.2799C49.0789 74.2729 49.0739 74.2649 49.0669 74.2579C48.8689 74.0389 48.7129 73.7919 48.5579 73.5459C48.5249 73.4909 48.4909 73.4369 48.4569 73.3839C48.8339 72.9799 49.1249 72.4649 49.41 71.9519L50.188 70.5559C50.192 70.5489 50.197 70.5399 50.2 70.5309C50.382 70.0829 50.441 69.7519 50.387 69.5159C50.338 69.3049 50.216 69.1739 50.027 69.1109L50.068 67.1818C50.016 66.3978 49.779 65.8068 49.399 65.3598C48.6429 64.4678 46.8898 63.3888 45.8058 63.5108C45.5828 63.5358 45.9838 64.2918 45.7678 64.3588C45.4258 64.4628 45.0988 64.6178 44.8008 64.8268C44.2597 65.2018 43.8227 65.7488 43.6497 66.4268C43.6087 66.5878 43.5787 66.7488 43.5647 66.9078C43.5357 67.5858 43.5527 68.3918 43.5967 69.0339C43.5367 69.0579 43.4817 69.0889 43.4307 69.1269C43.3257 69.2039 43.2477 69.3029 43.1967 69.4229C43.1477 69.5379 43.1257 69.6669 43.1297 69.8099C43.1377 70.1139 43.2677 70.4849 43.5167 70.8899L44.1987 72.0729C44.4047 72.4319 44.6208 72.7969 44.8728 73.1199C44.8128 73.3119 44.7198 73.5919 44.6158 73.8499C44.5478 74.0199 44.4757 74.1759 44.4087 74.2849C43.3017 75.1279 41.6006 74.9369 40.4726 75.664L39.9746 76.083C38.7075 74.4199 37.9445 72.2829 37.9445 69.9509C37.9445 67.2998 38.9305 64.8998 40.5236 63.1658C42.1147 61.4317 44.3157 60.3557 46.7488 60.3557C49.1819 60.3557 51.384 61.4297 52.9751 63.1638C54.5662 64.8998 55.5522 67.2998 55.5522 69.9499C55.5552 72.1929 54.8342 74.3659 53.5151 76.088L53.0261 75.665L53.0281 75.666Z" fill="#65B946"/>
<path d="M14.8431 67.555C16.7532 69.6361 19.3943 70.9251 22.3094 70.9251C25.2246 70.9251 27.8167 69.6591 29.7227 67.6101L29.7777 67.555C31.6878 65.474 32.8709 62.597 32.8709 59.4189C32.8709 56.2409 31.6918 53.3758 29.7847 51.2948L33.6049 45.5097C33.3329 45.2447 33.0679 44.9707 32.8089 44.6907C32.4209 44.2677 32.0488 43.8247 31.6928 43.3667L27.6467 49.4918C26.0796 48.4888 24.2555 47.9138 22.3094 47.9138C19.3943 47.9138 16.7532 49.2028 14.8431 51.2838C12.933 53.3648 11.75 56.2419 11.75 59.4199C11.75 62.598 12.912 65.42 14.7931 67.498L14.8421 67.5561L14.8431 67.555ZM16.0842 52.6358C17.6772 50.8998 19.8783 49.8258 22.3094 49.8258C24.7405 49.8258 26.9446 50.8998 28.5357 52.6338C30.1268 54.3699 31.1148 56.7699 31.1148 59.4189C31.1148 61.754 30.3478 63.893 29.0767 65.557L28.5877 65.134L28.5547 65.113C27.7177 64.605 25.5386 64.437 24.6445 63.748C24.6405 63.741 24.6335 63.733 24.6265 63.726C24.4295 63.507 24.2735 63.26 24.1195 63.014C24.0865 62.959 24.0515 62.905 24.0165 62.852C24.3955 62.448 24.6855 61.933 24.9705 61.42L25.7476 60.0239C25.7526 60.0169 25.7576 60.0079 25.7596 59.9999C25.9426 59.5499 26.0016 59.2199 25.9466 58.9839C25.8986 58.7729 25.7756 58.6409 25.5866 58.5789L25.6286 56.6499C25.5766 55.8679 25.3386 55.2749 24.9595 54.8279C24.2035 53.9359 22.4504 52.8568 21.3664 52.9788C21.1424 53.0038 21.5444 53.7599 21.3264 53.8269C20.9864 53.9329 20.6574 54.0879 20.3614 54.2949C19.8183 54.6699 19.3833 55.2169 19.2083 55.8949C19.1673 56.0559 19.1373 56.2169 19.1233 56.3759C19.0963 57.0539 19.1113 57.8609 19.1563 58.5019C19.0963 58.5259 19.0403 58.5569 18.9913 58.5939C18.8843 58.6709 18.8063 58.7699 18.7563 58.8899C18.7073 59.0049 18.6853 59.1339 18.6893 59.2769C18.6973 59.5809 18.8293 59.9519 19.0763 60.3569L19.7603 61.54C19.9663 61.899 20.1823 62.264 20.4344 62.587C20.3744 62.779 20.2814 63.059 20.1763 63.317C20.1083 63.487 20.0373 63.643 19.9713 63.752C18.8623 64.595 17.1612 64.405 16.0352 65.132L15.5362 65.551C14.2691 63.888 13.5061 61.75 13.5061 59.4189C13.5061 56.7699 14.4921 54.3699 16.0852 52.6358H16.0842Z" fill="#65B946"/>
<path d="M78.6576 49.0955C76.7445 47.0145 74.1044 45.7254 71.1933 45.7254C69.2462 45.7254 67.4221 46.2994 65.857 47.3015L62.0999 42.9834C61.5329 43.7514 60.9178 44.4754 60.2578 45.1494L63.71 49.1155C61.8079 51.1985 60.6318 54.0676 60.6318 57.2326C60.6318 60.3977 61.7939 63.2307 63.675 65.3107L63.724 65.3707C65.635 67.4518 68.2751 68.7408 71.1913 68.7408C74.1074 68.7408 76.6955 67.4738 78.6046 65.4247L78.6576 65.3707C80.5697 63.2877 81.7517 60.4107 81.7517 57.2326C81.7517 54.0546 80.5707 51.1855 78.6606 49.1025L78.6556 49.0955H78.6576ZM77.5965 63.8187C76.9625 62.7057 74.6524 62.3837 73.7164 61.8297C72.6213 61.1847 72.7853 60.5957 72.7923 59.4476H74.3404C78.2196 59.4476 75.7355 59.6096 75.1554 55.0936C74.2514 48.4595 68.1251 48.4655 67.3181 55.0936C66.7801 59.7866 64.171 59.4476 68.1331 59.4476H69.6592C69.6642 60.4887 69.8292 61.1207 68.8672 61.7497C67.6151 62.5677 65.412 62.7037 64.833 63.8727C63.3189 62.1517 62.3899 59.8107 62.3899 57.2336C62.3899 54.6566 63.3739 52.1815 64.969 50.4485C66.5621 48.7125 68.7642 47.6385 71.1953 47.6385C73.6264 47.6385 75.8305 48.7115 77.4235 50.4465C79.0166 52.1805 80.0006 54.5806 80.0006 57.2326C80.0006 59.8847 79.0876 62.1007 77.5985 63.8177L77.5965 63.8187Z" fill="#65B946"/>
</svg>
