<svg width="134" height="89" viewBox="0 0 134 89" fill="none" xmlns="http://www.w3.org/2000/svg">
<path d="M120.281 32.3701V50.7593V77.5376C120.281 83.0604 115.804 87.5376 110.281 87.5376H11C5.47716 87.5376 1 83.0604 1 77.5376V23.981C1 18.4581 5.47715 13.981 11 13.981H60.6405H90.4608H105.371" stroke="#65B946"/>
<g clip-path="url(#clip0_8791_11860)">
<path d="M77.5391 56.9219L79.4963 47.4172L86.5804 44.71L89.7507 47.8802L87.0434 54.9643L77.5391 56.9219ZM80.0508 47.8888L78.3598 56.1012L86.5719 54.4099L89.0067 48.039L86.4218 45.454L80.0508 47.8888Z" fill="#65B946"/>
<path d="M77.7224 56.7374C77.5977 56.6127 77.5977 56.4108 77.7224 56.286L82.3114 51.697C82.4361 51.5723 82.6379 51.5723 82.7628 51.697C82.8875 51.8217 82.8875 52.0236 82.7628 52.1484L78.1738 56.7374C78.049 56.8621 77.8471 56.8621 77.7224 56.7374Z" fill="#65B946"/>
<path d="M82.4616 52.001C81.9607 51.5001 81.9608 50.6849 82.4616 50.1842C82.9623 49.6834 83.7775 49.6833 84.2784 50.1842C84.7792 50.685 84.7789 51.5001 84.2781 52.0009C83.7774 52.5017 82.9623 52.5018 82.4616 52.001ZM83.8271 50.6355C83.575 50.3834 83.1651 50.3834 82.913 50.6355C82.6608 50.8876 82.6608 51.2975 82.913 51.5496C83.1649 51.8015 83.5747 51.8015 83.8269 51.5494C84.079 51.2974 84.079 50.8875 83.8271 50.6355Z" fill="#65B946"/>
<path d="M91.2857 47.0853L87.3759 43.1755C86.6244 42.4239 86.6249 41.2008 87.3764 40.4493L123.192 4.63356C123.317 4.50887 123.519 4.50887 123.643 4.63356L129.828 10.8181C129.953 10.9428 129.953 11.1447 129.828 11.2695L94.0121 47.0851C93.2606 47.8366 92.0372 47.8369 91.2857 47.0853ZM123.418 5.31053L87.8276 40.9005C87.3247 41.4034 87.3244 42.2213 87.8271 42.724L91.7369 46.6338C92.2395 47.1364 93.0577 47.1364 93.5606 46.6335L129.151 11.0437L123.418 5.31053Z" fill="#65B946"/>
<path d="M129.376 11.2692L123.191 5.08465C123.066 4.95995 123.066 4.75807 123.191 4.63325L123.873 3.95142C124.638 3.18628 125.883 3.18603 126.648 3.95117L130.509 7.81162C131.274 8.57675 131.274 9.82196 130.509 10.5872L129.827 11.2691C129.702 11.3939 129.5 11.3939 129.376 11.2692ZM123.868 4.85895L129.601 10.5921L130.058 10.1358C130.574 9.61946 130.574 8.77938 130.058 8.26302L126.197 4.40256C125.681 3.88645 124.841 3.88645 124.324 4.40281L123.868 4.85895Z" fill="#65B946"/>
<path d="M130.005 8.06629L126.394 4.45548C126.27 4.33078 126.27 4.1289 126.394 4.00408L129.102 1.29594C130.214 0.183905 132.024 0.183905 133.136 1.29594L133.164 1.32437C134.276 2.43641 134.277 4.24599 133.165 5.35815L130.457 8.06629C130.332 8.19098 130.13 8.19098 130.005 8.06629ZM127.071 4.22978L130.231 7.38919L132.713 4.90675C133.576 4.04348 133.576 2.63891 132.713 1.77577L132.684 1.74734C131.821 0.884071 130.417 0.884071 129.554 1.74734L127.071 4.22978Z" fill="#65B946"/>
<path d="M112.082 22.3799C111.306 21.6041 111.306 20.342 112.082 19.5662L122.04 9.60768C122.816 8.83195 124.078 8.83195 124.854 9.60768C125.63 10.3834 125.63 11.6456 124.854 12.4213L114.895 22.3799C114.12 23.1557 112.858 23.1557 112.082 22.3799ZM124.403 10.059C123.876 9.53199 123.019 9.53199 122.492 10.059L112.533 20.0175C112.006 20.5442 112.006 21.4015 112.533 21.9285C113.06 22.4552 113.917 22.4552 114.444 21.9285L124.403 11.9699C124.93 11.4429 124.93 10.5857 124.403 10.059Z" fill="#65B946"/>
<path d="M90.0071 49.04L85.4197 44.4527C84.8496 43.8826 84.8496 42.9552 85.42 42.3849C85.9898 41.815 86.9173 41.815 87.4874 42.3851L92.0748 46.9724C92.6449 47.5425 92.6449 48.4699 92.075 49.0399C91.5045 49.6102 90.5772 49.6102 90.0071 49.04ZM87.036 42.8364C86.715 42.5153 86.1922 42.5153 85.8713 42.8362C85.5499 43.1575 85.5499 43.6802 85.871 44.0013L90.4583 48.5886C90.7794 48.9097 91.3021 48.9097 91.6235 48.5884C91.9443 48.2675 91.9443 47.7447 91.6232 47.4236L87.036 42.8364Z" fill="#65B946"/>
</g>
<path d="M115.512 34.3582V50.7593V73.5616C115.512 79.0844 111.035 83.5616 105.512 83.5616H15.7734C10.2506 83.5616 5.77344 79.0844 5.77344 73.5616V27.957C5.77344 22.4342 10.2506 17.957 15.7734 17.957H60.6427H88.0773H101.795" stroke="#65B946"/>
<path d="M56.2644 66.7627V69.031C56.2644 70.6878 54.9212 72.031 53.2644 72.031H47.2686M56.2644 56.2263V53.958C56.2644 52.3012 54.9212 50.958 53.2644 50.958H47.2686M29.277 50.958H23.2812C21.6244 50.958 20.2812 52.3012 20.2812 53.958V56.2263M29.277 72.031H23.2812C21.6244 72.031 20.2812 70.6878 20.2812 69.031V66.7627" stroke="#65B946"/>
<g clip-path="url(#clip1_8791_11860)">
<path d="M49.6663 55.1556C49.805 55.0869 50.1635 55.1671 50.071 55.3961C49.62 56.5644 48.7413 57.7098 48.0476 58.7521C47.3076 59.8631 46.2554 61.5124 46.2323 62.8983C46.7063 62.8181 47.2845 62.0621 47.4232 61.6384C47.4579 61.478 47.5273 61.3406 47.6198 61.2031C48.0707 61.1688 48.0591 61.3749 48.1516 61.7185C48.5679 61.9705 49.8628 61.9247 49.7357 62.6806C49.701 62.8983 49.6432 63.1159 49.5391 63.3106C50.2328 63.3106 51.0653 63.1159 51.3428 63.9176C51.4006 64.0894 51.5509 64.2727 51.4816 64.4445C51.4237 64.5934 51.1925 64.5132 51.0422 64.5018C50.6838 64.4559 50.9959 63.8374 50.6491 63.8489C50.3716 63.8489 50.0825 63.8489 49.805 63.8489C49.2847 63.8604 48.8107 63.952 48.8338 63.2991C48.8338 63.1617 49.3194 62.5432 49.0997 62.463C48.6719 62.3141 48.2326 62.2225 47.7816 62.1652C47.6198 62.4058 47.4926 62.6692 47.2845 62.8753C46.926 63.219 45.9895 63.8604 45.6079 63.2877C45.2842 62.8066 45.5848 62.0507 45.7582 61.5353C46.1745 60.2983 47.1342 59.1071 47.8163 58.0648C47.8048 58.0419 47.7816 58.0305 47.7585 58.019C47.6313 58.1565 47.3423 58.5344 47.1226 58.4543C46.6254 58.271 47.377 57.6067 47.5273 57.412C47.747 57.1142 48.0013 56.8508 48.2441 56.5644C48.6372 56.0719 49.0766 55.4534 49.6663 55.1556ZM31.4211 55.4649C32.0339 55.2358 32.2304 55.8543 32.0107 56.2437C31.0395 57.9732 29.9758 59.8631 29.0624 61.5811C28.068 63.4824 26.9349 65.5211 26.1487 67.3881C26.0793 67.5484 26.2065 67.7317 26.1718 67.9149C26.0446 68.4303 25.6977 69.0717 25.1196 69.0488C24.7381 69.0374 24.8537 68.5563 24.9809 68.3158C25.0965 68.1096 25.1543 67.8691 25.2584 67.64C26.1487 65.6128 27.3627 63.5969 28.3686 61.6269C29.1664 60.0578 30.1145 58.2366 31.1089 56.7935C31.2361 56.6331 31.3286 56.4613 31.3979 56.2666C31.4095 56.2094 31.3748 56.1635 31.3286 56.1521C31.317 56.1521 31.3054 56.1521 31.2823 56.1521C29.8601 56.6675 27.8946 58.4084 27.0505 59.5653C26.854 59.8287 26.5302 60.8252 26.0793 60.3785C26.0215 59.9432 26.299 59.4278 26.6343 58.9926C27.6402 57.7098 29.7908 56.0146 31.4211 55.4649ZM46.0126 56.5988C45.8854 56.7133 45.8392 56.8851 45.7236 57.0111C45.2264 57.5494 44.7176 57.9045 44.0933 58.2825C43.573 58.6261 42.4283 58.7406 42.2318 59.382C42.1855 59.5194 42.1277 59.6683 42.1739 59.8058C42.3358 60.1838 42.9255 59.5424 43.0758 59.4851C43.7233 59.1186 44.4055 58.7521 45.0761 58.4314C45.0414 58.5802 44.9836 58.7291 44.9142 58.8666C44.5789 59.6454 44.2089 60.3785 43.8158 61.1229C43.7811 61.1688 43.7348 61.2489 43.6655 61.2031C43.4689 61.0428 43.2608 60.9168 43.018 60.8366C42.093 60.5274 40.5205 59.8172 39.5493 59.76C38.4278 59.6912 39.4106 61.6498 39.5956 62.0507C39.9424 62.7837 40.8674 64.1582 41.7924 64.4101C42.3127 64.5476 42.6364 64.33 42.9602 63.9405C43.4111 63.4137 43.5499 62.7265 43.9314 62.1652C44.7176 62.5317 45.0067 63.5167 44.8333 64.2841C44.6483 65.1432 44.1511 65.8991 43.6077 66.5863C43.2377 67.0674 43.3533 66.3801 43.4111 66.1511C43.5383 65.6357 43.388 65.5097 42.9486 65.6471C42.6711 65.7387 42.6942 67.3308 42.9833 67.4682C43.1683 67.5599 43.3302 67.6859 43.5267 67.5828C44.4633 67.0559 45.2958 65.4295 45.4692 64.3643C45.6542 63.2648 45.1801 62.1538 44.2436 61.5238C44.3361 61.3291 44.4286 61.1688 44.5211 60.9741C45.157 59.9318 45.5501 58.8437 46.0704 57.7556C46.2323 57.4693 46.4404 57.1944 46.5098 56.8737C46.5676 56.6102 46.2323 56.3697 46.0126 56.5988ZM39.9887 60.6877C39.9771 60.3097 42.9602 61.478 43.2261 61.604C43.3186 61.6613 43.4111 61.73 43.4805 61.8102C43.0758 62.4516 42.7174 63.448 42.0005 63.7802C41.908 63.826 41.804 63.7573 41.723 63.7229C40.9137 63.3679 40.324 61.9705 40.0927 61.1802C40.0349 61.0199 40.0002 60.8595 39.9887 60.6877ZM31.1204 61.3177C30.577 61.4551 29.5595 61.9362 30.103 62.6348C30.4383 63.0701 31.2014 62.589 31.606 62.5317C31.7795 63.3564 32.4617 62.8295 32.901 62.5203C32.9588 62.6577 33.0166 62.7952 33.086 62.9326C33.2826 63.2991 33.8722 62.7837 34.0341 62.6119C34.2191 62.7723 34.2885 63.0472 34.5082 63.1502C34.8782 63.322 35.1788 63.0128 35.4678 62.7837C35.6181 62.6577 35.861 62.967 36.0113 63.0242C36.1616 63.0815 36.3466 62.9555 36.52 62.9441C36.7859 62.9326 37.0403 63.0472 37.3062 63.0815C37.5375 63.1044 38.4393 63.3335 38.2312 62.841C38.0231 62.3485 36.8322 62.3714 36.3581 62.3828C36.0228 62.3943 35.9303 62.2225 35.6413 62.085C35.2135 61.8789 34.7394 62.8639 34.5775 62.1652C34.4388 61.5696 33.8144 61.9705 33.5138 62.1652C33.5138 62.0163 33.4444 61.8674 33.3288 61.7758C32.8895 61.478 32.6351 62.108 32.2535 62.2569C32.2188 62.1767 32.2073 62.085 32.2188 62.0049C32.3113 61.4436 31.5367 61.2031 31.1204 61.3177ZM30.8661 61.8903C31.0164 61.7987 31.1898 61.7758 31.3517 61.8216C31.2939 62.085 30.7851 62.2683 30.5423 62.2225C30.6233 62.085 30.7273 61.9705 30.8661 61.8903Z" fill="#65B946"/>
</g>
<defs>
<clipPath id="clip0_8791_11860">
<rect width="56.4597" height="56.4597" fill="white" transform="translate(77.5391 0.462402)"/>
</clipPath>
<clipPath id="clip1_8791_11860">
<rect width="26.6394" height="13.9161" fill="white" transform="translate(24.8555 55.1328)"/>
</clipPath>
</defs>
</svg>
