<svg width="60" height="50" viewBox="0 0 60 50" fill="none" xmlns="http://www.w3.org/2000/svg">
<path d="M17.0625 15.3166H24.5266V4.71289H17.0625V15.3166ZM19.2334 6.77365H22.3564V13.2551H19.2334V6.77365Z" fill="#E4E6EB"/>
<path d="M13.9804 10.8324C13.6074 10.5037 13.1177 10.223 12.5249 9.99922C12.4864 9.98445 12.4473 9.97041 12.4075 9.95638C12.7473 9.41571 12.9299 8.78345 12.9299 8.11868C12.9299 6.2411 11.4352 4.71289 9.59746 4.71289C7.75975 4.71289 6.26506 6.24036 6.26506 8.11868C6.26506 8.79157 6.44179 9.42457 6.77307 9.96155C6.73851 9.97411 6.70395 9.98667 6.67004 9.99922C6.0766 10.223 5.5875 10.5037 5.21448 10.8324C4.59365 11.3804 4.26562 12.0814 4.26562 12.8592V15.3166H14.9286V12.8592C14.9286 12.0807 14.6006 11.3797 13.9798 10.8324H13.9804ZM13.1092 13.2558H6.08638V12.8599C6.08638 12.7092 6.22072 12.5586 6.33354 12.4588C6.53961 12.2771 6.85524 12.1028 7.24717 11.9551C8.02386 11.6611 9.04315 11.5304 9.59811 11.5119V9.47037C8.92641 9.42088 8.08582 8.96958 8.08582 8.11942C8.08582 7.31506 8.86772 6.77513 9.59811 6.77513C10.3285 6.77513 11.1104 7.31506 11.1104 8.11942C11.1104 8.92378 10.2835 9.4194 9.59811 9.47037V11.5119C10.1518 11.5304 11.1711 11.6611 11.9497 11.9558C12.3403 12.1036 12.656 12.2779 12.862 12.4596C12.9748 12.5593 13.1092 12.71 13.1092 12.8607V13.2566V13.2558Z" fill="#E4E6EB"/>
<path d="M23.9386 0H3.78527C1.69801 0 0 1.54496 0 3.44454V15.4065C0 17.306 1.69801 18.851 3.78527 18.851H23.9386C26.0258 18.851 27.7238 17.306 27.7238 15.4065V3.44454C27.7238 1.54496 26.0258 0 23.9386 0ZM25.8044 15.4065C25.8044 16.0842 25.0547 16.8103 23.9386 16.8103H3.78527C2.66909 16.8103 1.91877 16.0842 1.91877 15.4065V3.44454C1.91877 2.76674 2.6684 2.04069 3.78527 2.04069H23.9386C25.0547 2.04069 25.8044 2.76674 25.8044 3.44454V15.4065Z" fill="#E4E6EB"/>
<path d="M58.3322 19.7842L59.0976 21.083C59.6889 22.0569 60.0004 23.1455 60.0004 24.249V43.3065C60.0004 46.9977 56.6259 50.0002 52.4788 50.0002H18.7131C14.5652 50.0002 11.1914 46.9977 11.1914 43.3065V25.8868H24.1938L33.3591 35.1293C34.0036 35.554 34.7785 35.7776 35.6011 35.7776C36.4237 35.7776 37.2137 35.5462 37.8725 35.1095L37.89 35.0981M13.4088 27.863V43.3072C13.4088 45.9091 15.7883 48.0254 18.7123 48.0254H52.478C55.4027 48.0254 57.7815 45.9091 57.7815 43.3072V24.2497C57.7815 23.8073 57.7099 23.3685 57.5716 22.9459L39.3405 36.5923C39.2864 36.6362 39.23 36.6758 39.1688 36.7126C38.13 37.3935 36.8974 37.7538 35.6003 37.7538C34.3032 37.7538 33.0555 37.3921 32.0223 36.707C31.9984 36.6921 31.9777 36.6787 31.9603 36.6659L31.8776 36.6213L23.1924 27.863H13.408H13.4088Z" fill="#E4E6EB"/>
<path d="M35.6073 31.6738C34.9969 31.6738 34.3849 31.5067 33.8628 31.1727L33.7618 31.1083L25.2109 22.5014H30.2951C31.798 22.5014 33.068 21.6287 33.068 20.5946V14.1621L52.481 14.1642C53.871 14.1642 55.242 14.516 56.4461 15.182L57.7455 15.9005L37.3661 31.1592L37.3311 31.1819C36.8161 31.5096 36.2121 31.6738 35.6073 31.6738ZM35.2401 29.6141C35.4849 29.7323 35.7813 29.7252 36.0126 29.5914L53.7812 16.2876C53.356 16.1892 52.9189 16.139 52.4802 16.139L35.2862 16.1376V20.5946C35.2862 22.735 33.0473 24.4762 30.2951 24.4762H30.1353L35.2401 29.6141Z" fill="#E4E6EB"/>
</svg>
